<?xml version="1.0" encoding="UTF-8" standalone="no"?>
<!-- Created with Inkscape (http://www.inkscape.org/) -->

<svg
   xmlns:osb="http://www.openswatchbook.org/uri/2009/osb"
   xmlns:dc="http://purl.org/dc/elements/1.1/"
   xmlns:cc="http://creativecommons.org/ns#"
   xmlns:rdf="http://www.w3.org/1999/02/22-rdf-syntax-ns#"
   xmlns:svg="http://www.w3.org/2000/svg"
   xmlns="http://www.w3.org/2000/svg"
   xmlns:xlink="http://www.w3.org/1999/xlink"
   xmlns:sodipodi="http://sodipodi.sourceforge.net/DTD/sodipodi-0.dtd"
   xmlns:inkscape="http://www.inkscape.org/namespaces/inkscape"
   id="svg4190"
   version="1.1"
   inkscape:version="0.91 r13725"
   width="194.8819"
   height="64.963142"
   viewBox="0 0 194.8819 64.963143"
   sodipodi:docname="keychain.svg">
  <metadata
     id="metadata4196">
    <rdf:RDF>
      <cc:Work
         rdf:about="">
        <dc:format>image/svg+xml</dc:format>
        <dc:type
           rdf:resource="http://purl.org/dc/dcmitype/StillImage" />
        <dc:title />
      </cc:Work>
    </rdf:RDF>
  </metadata>
  <defs
     id="defs4194">
    <linearGradient
       id="linearGradient4204"
       osb:paint="solid">
      <stop
         style="stop-color:#f2f2f2;stop-opacity:1;"
         offset="0"
         id="stop4206" />
    </linearGradient>
    <linearGradient
       inkscape:collect="always"
       xlink:href="#linearGradient4204"
       id="linearGradient4208"
       x1="-22.026943"
       y1="83.951248"
       x2="486.19745"
       y2="83.951248"
       gradientUnits="userSpaceOnUse"
       gradientTransform="matrix(-0.99131315,0,0,0.93858385,527.65235,31.050795)" />
  </defs>
  <sodipodi:namedview
     pagecolor="#ffffff"
     bordercolor="#666666"
     borderopacity="1"
     objecttolerance="10"
     gridtolerance="10"
     guidetolerance="10"
     inkscape:pageopacity="0"
     inkscape:pageshadow="2"
     inkscape:window-width="2560"
     inkscape:window-height="1376"
     id="namedview4192"
     showgrid="false"
     fit-margin-top="0"
     fit-margin-left="0"
     fit-margin-right="0"
     fit-margin-bottom="0"
     inkscape:zoom="5.7823579"
     inkscape:cx="45.565145"
     inkscape:cy="-8.258129"
     inkscape:window-x="0"
     inkscape:window-y="27"
     inkscape:window-maximized="1"
     inkscape:current-layer="g4139"
     showguides="false" />
  <g
     inkscape:groupmode="layer"
     id="layer1"
     inkscape:label="Base"
     style="display:inline"
     transform="translate(12.590837,-145.04001)">
    <g
       id="g4139"
       transform="matrix(0.32512408,0,0,0.32512408,-8.4972524,141.72607)">
      <path
         sodipodi:nodetypes="csccsccsssss"
         inkscape:connector-curvature="0"
         id="base_3_mm"
         d="m 510.05298,10.675136 c 0,0 75.8711,4.667068 76.28004,99.170894 0.40471,93.526 -76.28004,99.1709 -76.28004,99.1709 l -441.17969,0.5039 c 0,0 -81.58187,-5.84321 -80.97851,-99.63369 0.60103,-93.427479 80.97851,-98.981535 80.97851,-98.981535 z M 30.74048,86.376308 c -13.1022,5.54e-4 -23.7231804,10.622414 -23.7226604,23.724612 5.6e-4,13.10143 10.6212304,23.7221 23.7226604,23.72265 13.10219,5.2e-4 23.72405,-10.62046 23.72461,-23.72265 C 54.46561,96.99796 43.84344,86.375785 30.74048,86.376308 Z"
         style="color:#000000;clip-rule:nonzero;display:inline;overflow:visible;visibility:visible;opacity:1;isolation:auto;mix-blend-mode:normal;color-interpolation:sRGB;color-interpolation-filters:linearRGB;solid-color:#000000;solid-opacity:1;fill:#c3c3c3;fill-opacity:1;fill-rule:nonzero;stroke:url(#linearGradient4208);stroke-width:0.96458822;stroke-linecap:butt;stroke-linejoin:miter;stroke-miterlimit:4;stroke-dasharray:none;stroke-dashoffset:0;stroke-opacity:1;marker:none;color-rendering:auto;image-rendering:auto;shape-rendering:auto;text-rendering:auto;enable-background:accumulate"
         inkscape:label="#rect4202" />
      <path
         id="text_4_mm"
         d="m 297.95959,69.839201 c -4.48171,-0.01 -8.94787,1.95634 -11.2207,5.90234 -0.82824,1.43795 -5.88995,17.8957 -11.24804,36.574219 -5.35809,18.67851 -9.97207,34.56241 -10.25391,35.29688 -0.4046,1.05437 1.02157,1.27302 6.77539,1.03906 l 7.28711,-0.29687 2.67773,-9.5 2.67774,-9.5 13.31836,0 13.32031,0 2.67773,9.5 2.67774,9.5 7.28711,0.29687 c 5.64379,0.22949 7.17586,0.004 6.79687,-1 -0.26915,-0.71298 -4.85348,-16.57444 -10.1875,-35.24805 -5.33401,-18.673609 -10.40452,-35.150889 -11.26953,-36.615229 -2.33676,-3.95583 -6.83469,-5.93968 -11.31641,-5.94922 z m 214.13087,0.0879 c -3.57128,0.0582 -7.13547,0.662 -9.625,1.79297 -10.65869,4.84214 -17.45703,19.69245 -17.45703,38.134759 0,18.44231 6.79834,33.29263 17.45703,38.13478 4.97905,2.26193 14.25893,2.41327 19.29102,0.31445 11.24832,-4.69153 18.1875,-19.3623 18.1875,-38.44923 0,-19.086929 -6.93918,-33.757679 -18.1875,-38.449209 -2.51605,-1.04942 -6.09473,-1.53671 -9.66602,-1.47852 z m -81.11718,0.92773 0,38.999999 0,39.00001 7,0 7,0 0,-18.90234 0,-18.90235 3.15039,-1.09766 c 4.36087,-1.52021 10.09086,-1.37193 12.4082,0.32031 1.77992,1.2998 1.96797,2.96082 2.25391,20.00001 l 0.3125,18.58203 6.4375,0 6.4375,0 0,-19.85156 c 0,-18.993 -0.098,-19.99849 -2.27344,-23.22657 -5.28806,-7.846949 -15.06163,-10.220859 -24.47656,-5.947269 l -4.25,1.927739 0,-15.451169 0,-15.45118 -7,0 -7,0 z m 81.47656,9.82618 c 2.67848,-0.12069 5.36421,1.15683 7.54687,3.93164 7.45468,9.4771 7.45468,41.007289 0,50.484379 -4.98895,6.34242 -12.61028,4.8623 -16.74804,-3.25391 -5.28539,-10.3673 -5.28539,-33.607299 0,-43.974609 2.32749,-4.56538 5.75741,-7.03233 9.20117,-7.1875 z m -114.47656,1.17382 0,8.5 0,8.5 -4.05274,0 -4.05078,0 0.30078,5.249999 0.30274,5.25 3.66211,0.30469 3.66015,0.30664 0.33985,15.19337 c 0.36886,16.54741 1.25811,19.60161 6.71093,23.03515 1.84105,1.15927 4.42237,1.58144 8.62696,1.40821 l 6,-0.24805 0.30664,-5.38086 c 0.29234,-5.1275 0.20362,-5.35355 -1.91016,-4.80078 -1.22017,0.31908 -3.04751,0.13681 -4.05859,-0.4043 -1.64971,-0.8829 -1.83789,-2.41725 -1.83789,-14.94922 l 0,-13.96485 4,0 4,0 0,-5.5 0,-5.499999 -4,0 -4,0 0,-8.5 0,-8.5 -7,0 -7,0 z m -99.94533,3 c 0.31984,0 2.51058,6.83874 4.86914,15.195319 2.35858,8.35657 4.51339,15.78157 4.78907,16.5 0.39199,1.0215 -1.68646,1.30469 -9.53516,1.30469 l -10.03515,0 1.94335,-6.75001 c 1.0697,-3.7125 3.1698,-11.137499 4.66602,-16.499999 1.49623,-5.3625 2.98289,-9.75 3.30273,-9.75 z m 38.83205,14 0.30664,20.250009 c 0.29583,19.50144 0.39504,20.37445 2.69531,23.59961 1.31371,1.84193 3.78871,4.22788 5.5,5.30273 4.17418,2.62179 14.31098,2.20051 20.47461,-0.85156 4.25721,-2.10805 4.37266,-2.11405 4.86523,-0.23047 0.41973,1.60507 1.41146,1.92969 5.88867,1.92969 l 5.38282,0 0,-25 0,-25.000009 -6.5,0 -6.5,0 0,18.550789 0,18.55273 -3.54492,1.48047 c -5.45053,2.27738 -10.20264,2.11083 -12.76172,-0.44531 -2.06698,-2.06461 -2.2106,-3.21445 -2.50586,-20.16406 l -0.3125,-17.974619 -6.49414,0 -6.49414,0 z"
         style="display:inline;fill:#000000"
         inkscape:connector-curvature="0"
         inkscape:label="#path4200-0" />
      <path
         id="logo_5_mm"
         d="m 101.95675,29.719412 -9.121094,28.25 c -5.01656,15.5375 -9.60113,30.920086 -10.1875,34.183596 -3.13033,17.422262 0.50552,36.253972 10.08007,52.216792 6.098366,10.16727 14.452454,17.78343 39.353514,35.875 13.20001,9.5903 24.38622,17.44673 24.85742,17.45703 1.27757,0.0278 46.14059,-32.72372 51.82226,-37.83203 17.07846,-15.355 26.56771,-42.45228 22.99024,-65.650392 -0.59372,-3.85 -5.2545,-19.937496 -10.35547,-35.749996 l -9.27344,-28.75 -55.08398,0 -55.08203,0 z m 55.09179,1.69727 8.05468,24.90234 8.05469,24.90039 26.80469,0.5 26.80664,0.5 -21.34375,15.414066 c -11.73868,8.477082 -21.43806,15.472032 -21.55469,15.544932 -0.11662,0.0729 3.40178,11.2938 7.81836,24.93553 4.41659,13.64175 7.8859,24.93661 7.71094,25.09961 -0.17496,0.16299 -9.75982,-6.58682 -21.30078,-15 l -20.98438,-15.29687 -3.01562,2.11328 c -1.65906,1.16279 -6.16758,4.41718 -10.01758,7.23046 -24.61957,17.99014 -29.49999,21.39935 -29.49999,20.61329 0,-0.48358 3.55372,-11.77056 7.89647,-25.08399 l 7.89649,-24.20701 -9.14648,-6.71876 C 116.19797,103.16843 106.47952,96.111498 99.632522,91.182298 l -12.449216,-8.962886 26.835944,-0.5 26.83593,-0.5 8.09765,-24.90039 8.09571,-24.90234 z"
         style="display:inline;fill:#d40000"
         inkscape:connector-curvature="0"
         inkscape:label="#path4200-1-0" />
    </g>
  </g>
</svg>
