<?xml version="1.0" encoding="UTF-8" standalone="no"?>
<!-- Created with Inkscape (http://www.inkscape.org/) -->

<svg
   xmlns:osb="http://www.openswatchbook.org/uri/2009/osb"
   xmlns:dc="http://purl.org/dc/elements/1.1/"
   xmlns:cc="http://creativecommons.org/ns#"
   xmlns:rdf="http://www.w3.org/1999/02/22-rdf-syntax-ns#"
   xmlns:svg="http://www.w3.org/2000/svg"
   xmlns="http://www.w3.org/2000/svg"
   xmlns:sodipodi="http://sodipodi.sourceforge.net/DTD/sodipodi-0.dtd"
   xmlns:inkscape="http://www.inkscape.org/namespaces/inkscape"
   id="svg4190"
   version="1.1"
   inkscape:version="0.91 r13725"
   width="555.12427"
   height="187.30672"
   viewBox="0 0 555.12427 187.30672"
   sodipodi:docname="Auth0.svg">
  <metadata
     id="metadata4196">
    <rdf:RDF>
      <cc:Work
         rdf:about="">
        <dc:format>image/svg+xml</dc:format>
        <dc:type
           rdf:resource="http://purl.org/dc/dcmitype/StillImage" />
        <dc:title></dc:title>
      </cc:Work>
    </rdf:RDF>
  </metadata>
  <defs
     id="defs4194">
    <linearGradient
       id="linearGradient4204"
       osb:paint="solid">
      <stop
         style="stop-color:#f2f2f2;stop-opacity:1;"
         offset="0"
         id="stop4206" />
    </linearGradient>
  </defs>
  <sodipodi:namedview
     pagecolor="#ffffff"
     bordercolor="#666666"
     borderopacity="1"
     objecttolerance="10"
     gridtolerance="10"
     guidetolerance="10"
     inkscape:pageopacity="0"
     inkscape:pageshadow="2"
     inkscape:window-width="2560"
     inkscape:window-height="1376"
     id="namedview4192"
     showgrid="false"
     fit-margin-top="0"
     fit-margin-left="0"
     fit-margin-right="0"
     fit-margin-bottom="0"
     inkscape:zoom="2.0443723"
     inkscape:cx="98.738539"
     inkscape:cy="47.9643"
     inkscape:window-x="0"
     inkscape:window-y="27"
     inkscape:window-maximized="1"
     inkscape:current-layer="layer3" />
  <g
     inkscape:groupmode="layer"
     id="layer1"
     inkscape:label="Base"
     style="display:inline"
     transform="translate(-31.690671,-16.192714)">
    <path
       style="color:#000000;clip-rule:nonzero;display:inline;overflow:visible;visibility:visible;opacity:1;isolation:auto;mix-blend-mode:normal;color-interpolation:sRGB;color-interpolation-filters:linearRGB;solid-color:#000000;solid-opacity:1;fill:#e6e6e6;fill-opacity:1;fill-rule:nonzero;stroke:none;stroke-width:0.96458822;stroke-linecap:butt;stroke-linejoin:miter;stroke-miterlimit:4;stroke-dasharray:none;stroke-dashoffset:0;stroke-opacity:1;marker:none;color-rendering:auto;image-rendering:auto;shape-rendering:auto;text-rendering:auto;enable-background:accumulate;filter-blend-mode:normal;filter-gaussianBlur-deviation:0"
       d="M 1.7906626,1.7906626 C 0.80036548,2.7544356 0.48242188,4.5280704 0.48242188,4.5280704 l 0,178.1998496 c 0,0 0.26867459,2.04434 1.22286922,3.05686 0.9541946,1.01252 3.0210992,1.29139 3.0210992,1.29139 l 468.9357197,0.25195 c 0,0 81.30281,2.22271 80.97851,-97.806636 C 554.35517,1.4752674 473.66211,0.71289062 473.66211,0.71289062 L 4.7263903,0.59765625 c 0,0 -1.9454306,0.22923329 -2.9357277,1.19300635 z M 511.79492,70.183594 c 13.1022,5.54e-4 23.72318,10.622414 23.72266,23.724609 -5.6e-4,13.101437 -10.62123,23.722107 -23.72266,23.722657 -13.10219,5.2e-4 -23.72405,-10.62046 -23.72461,-23.722657 -5.2e-4,-13.102957 10.62165,-23.725132 23.72461,-23.724609 z"
       transform="translate(31.690671,16.192714)"
       id="rect4202"
       inkscape:connector-curvature="0"
       sodipodi:nodetypes="zcczccscczsssss" />
  </g>
  <g
     inkscape:groupmode="layer"
     id="layer2"
     inkscape:label="Text"
     style="display:inline"
     transform="translate(-31.690671,-16.192714)">
    <path
       style="fill:#000000"
       d="m 230.57812,53.646484 c -4.48171,-0.0095 -8.94787,1.956339 -11.2207,5.902344 -0.82824,1.43795 -5.88995,17.895698 -11.24804,36.574219 -5.35809,18.678503 -9.97207,34.562403 -10.25391,35.296873 -0.4046,1.05437 1.02157,1.27302 6.77539,1.03906 l 7.28711,-0.29687 2.67773,-9.5 2.67774,-9.5 13.31836,0 13.32031,0 2.67773,9.5 2.67774,9.5 7.28711,0.29687 c 5.64379,0.22949 7.17586,0.004 6.79687,-1 -0.26915,-0.71298 -4.85348,-16.57444 -10.1875,-35.248042 -5.33401,-18.673611 -10.40452,-35.150895 -11.26953,-36.615235 -2.33676,-3.95583 -6.83469,-5.939675 -11.31641,-5.949219 z m 214.13086,0.08789 c -3.57128,0.05819 -7.13547,0.662004 -9.625,1.792969 -10.65869,4.84214 -17.45703,19.692454 -17.45703,38.134765 0,18.442302 6.79834,33.292622 17.45703,38.134772 4.97905,2.26193 14.25893,2.41327 19.29102,0.31445 11.24832,-4.69153 18.1875,-19.3623 18.1875,-38.449222 0,-19.086931 -6.93918,-33.757688 -18.1875,-38.449218 -2.51605,-1.049415 -6.09473,-1.536704 -9.66602,-1.478516 z m -81.11718,0.927734 0,39 0,39.000002 7,0 7,0 0,-18.90234 0,-18.902349 3.15039,-1.097656 c 4.36087,-1.52021 10.09086,-1.371928 12.4082,0.320312 1.77992,1.2998 1.96797,2.96082 2.25391,20.000003 l 0.3125,18.58203 6.4375,0 6.4375,0 0,-19.85156 c 0,-18.992994 -0.098,-19.998487 -2.27344,-23.226567 -5.28806,-7.846951 -15.06163,-10.220855 -24.47656,-5.947265 l -4.25,1.927734 0,-15.451172 0,-15.451172 -7,0 -7,0 z m 81.47656,9.826172 c 2.67848,-0.120691 5.36421,1.156832 7.54687,3.931641 7.45468,9.4771 7.45468,41.007289 0,50.484379 -4.98895,6.34242 -12.61028,4.8623 -16.74804,-3.25391 -5.28539,-10.3673 -5.28539,-33.6073 0,-43.97461 2.32749,-4.565374 5.75741,-7.032326 9.20117,-7.1875 z m -114.47656,1.173828 0,8.5 0,8.5 -4.05274,0 -4.05078,0 0.30078,5.25 0.30274,5.25 3.66211,0.304688 3.66015,0.306641 0.33985,15.193363 c 0.36886,16.54741 1.25811,19.60161 6.71093,23.03515 1.84105,1.15927 4.42237,1.58144 8.62696,1.40821 l 6,-0.24805 0.30664,-5.38086 c 0.29234,-5.1275 0.20362,-5.35355 -1.91016,-4.80078 -1.22017,0.31908 -3.04751,0.13681 -4.05859,-0.4043 -1.64971,-0.8829 -1.83789,-2.41725 -1.83789,-14.94922 l 0,-13.964842 4,0 4,0 0,-5.5 0,-5.5 -4,0 -4,0 0,-8.5 0,-8.5 -7,0 -7,0 z m -99.94532,3 c 0.31984,0 2.51058,6.838732 4.86914,15.195313 2.35858,8.35657 4.51339,15.78157 4.78907,16.499999 0.39199,1.0215 -1.68646,1.30469 -9.53516,1.30469 l -10.03515,0 1.94335,-6.750002 c 1.0697,-3.7125 3.1698,-11.1375 4.66602,-16.5 1.49623,-5.3625 2.98289,-9.75 3.30273,-9.75 z m 38.83204,14 0.30664,20.250002 c 0.29583,19.50144 0.39504,20.37445 2.69531,23.59961 1.31371,1.84193 3.78871,4.22788 5.5,5.30273 4.17418,2.62179 14.31098,2.20051 20.47461,-0.85156 4.25721,-2.10805 4.37266,-2.11405 4.86523,-0.23047 0.41973,1.60507 1.41146,1.92969 5.88867,1.92969 l 5.38282,0 0,-25 0,-25.000002 -6.5,0 -6.5,0 0,18.550782 0,18.55273 -3.54492,1.48047 c -5.45053,2.27738 -10.20264,2.11083 -12.76172,-0.44531 -2.06698,-2.06461 -2.2106,-3.21445 -2.50586,-20.16406 l -0.3125,-17.974612 -6.49414,0 -6.49414,0 z"
       transform="translate(31.690671,16.192714)"
       id="path4200"
       inkscape:connector-curvature="0" />
  </g>
  <g
     inkscape:groupmode="layer"
     id="layer3"
     inkscape:label="Logo"
     style="display:inline">
    <path
       inkscape:connector-curvature="0"
       style="display:inline;fill:#d40000"
       d="m 30.966826,9.66268 -9.12109,28.25 c -5.01656,15.5375 -9.60113,30.92009 -10.1875,34.1836 -3.13033,17.42226 0.50552,36.25397 10.08007,52.21679 6.09837,10.16727 14.45245,17.78343 39.353516,35.875 13.20001,9.5903 24.38622,17.44673 24.85742,17.45703 1.27757,0.0278 46.140588,-32.72372 51.822258,-37.83203 17.07846,-15.355 26.56771,-42.452288 22.99024,-65.65039 -0.59372,-3.85 -5.2545,-19.9375 -10.35547,-35.75 l -9.27344,-28.75 -55.083978,0 -55.082026,0 z m 55.091796,1.69727 8.05468,24.90234 8.054688,24.90039 26.80469,0.5 26.80664,0.5 -21.34375,15.41407 c -11.73868,8.47708 -21.43806,15.472022 -21.55469,15.544922 -0.11662,0.0729 3.40178,11.293808 7.81836,24.935538 4.41659,13.64175 7.8859,24.93661 7.71094,25.09961 -0.17496,0.16299 -9.75982,-6.58682 -21.30078,-15 l -20.984378,-15.29687 -3.01562,2.11328 c -1.65906,1.16279 -6.16758,4.41718 -10.01758,7.23046 -24.619576,17.99014 -29.499996,21.39935 -29.499996,20.61329 0,-0.48358 3.55372,-11.77056 7.896476,-25.08399 L 59.384792,93.525972 50.238306,86.80722 C 45.208046,83.1117 35.489596,76.05477 28.642606,71.12557 l -12.44922,-8.96289 26.83594,-0.5 26.835936,-0.5 8.09765,-24.90039 8.09571,-24.90234 z"
       id="path4200-1" />
  </g>
</svg>
